<svg width="200" height="33" viewBox="0 0 200 33" fill="none" xmlns="http://www.w3.org/2000/svg">
<path d="M184.212 10.9267C182.203 8.6361 178.925 7.19586 174.627 7.19586C167.951 7.19586 162.543 10.9001 162.543 15.4706C162.543 19.871 167.567 23.4742 173.901 23.7293C173.659 23.7399 173.417 23.7453 173.175 23.7453C166.289 23.7453 160.707 19.8285 160.707 14.9976C160.707 10.1667 166.289 6.24988 173.175 6.24988C177.962 6.24988 182.124 8.14717 184.212 10.9267Z" fill="#2FB5E3"/>
<path d="M160.933 22.018C162.943 24.3086 166.22 25.7488 170.518 25.7488C177.194 25.7488 182.603 22.0446 182.603 17.4741C182.603 13.0737 177.578 9.47044 171.244 9.21534C171.486 9.20472 171.728 9.1994 171.97 9.1994C178.857 9.1994 184.439 13.1162 184.439 17.9471C184.439 22.778 178.857 26.6948 171.97 26.6948C167.183 26.6948 163.022 24.7975 160.933 22.018Z" fill="#FCB11B"/>
<path d="M0 3.62451H1.7045V14.3811H1.76236C2.0254 13.924 2.35684 13.5255 2.75666 13.1907C3.15648 12.8558 3.5826 12.5795 4.05081 12.3563C4.51376 12.1384 5.00301 11.9736 5.51331 11.8673C6.02361 11.761 6.5234 11.7079 7.01791 11.7079C8.02272 11.7079 8.94335 11.878 9.78508 12.2234C10.6268 12.5689 11.3581 13.0525 11.9736 13.6743C12.5891 14.2961 13.0678 15.0348 13.4098 15.8851C13.7517 16.7354 13.9201 17.6708 13.9201 18.6805C13.9201 19.6956 13.7517 20.6256 13.4098 21.476C13.0678 22.3263 12.5891 23.065 11.9736 23.6868C11.3581 24.3086 10.6268 24.7922 9.78508 25.1377C8.94335 25.4831 8.01746 25.6532 7.01791 25.6532C6.5234 25.6532 6.02361 25.6 5.51331 25.4937C5.00301 25.3874 4.51376 25.228 4.05081 25.0048C3.58786 24.7869 3.15648 24.5052 2.75666 24.1704C2.35684 23.8356 2.0254 23.437 1.76236 22.98H1.7045V25.3024H0V3.62451ZM1.53088 18.6858C1.53088 19.4299 1.67294 20.1367 1.95702 20.7957C2.2411 21.4547 2.6304 22.0287 3.11965 22.5176C3.61417 23.0066 4.1876 23.3945 4.85046 23.6815C5.51332 23.9685 6.23404 24.112 7.00738 24.112C7.80176 24.112 8.52249 23.9685 9.16431 23.6815C9.80613 23.3945 10.3585 23.0066 10.8109 22.5176C11.2634 22.0287 11.6106 21.4547 11.8473 20.7957C12.0841 20.1367 12.1998 19.4352 12.1998 18.6858C12.1998 17.9365 12.0788 17.235 11.8473 16.576C11.6106 15.917 11.2634 15.343 10.8109 14.8541C10.3585 14.3651 9.80613 13.9772 9.16431 13.6902C8.52249 13.4032 7.80176 13.2597 7.00738 13.2597C6.22878 13.2597 5.51332 13.4032 4.85046 13.6902C4.1876 13.9772 3.60891 14.3651 3.11965 14.8541C2.62514 15.343 2.2411 15.917 1.95702 16.576C1.67294 17.235 1.53088 17.9418 1.53088 18.6858Z" fill="#6D6E71"/>
<path d="M29.3027 22.8152C28.6398 23.8303 27.8191 24.5531 26.8459 24.9942C25.8726 25.4353 24.7942 25.6532 23.621 25.6532C22.6162 25.6532 21.7114 25.4831 20.8959 25.1377C20.0805 24.7922 19.3808 24.3086 18.7916 23.6868C18.2024 23.065 17.7552 22.3316 17.4448 21.476C17.1344 20.6256 16.9766 19.685 16.9766 18.6486C16.9766 17.6548 17.1397 16.7354 17.4606 15.8957C17.7815 15.056 18.234 14.3226 18.8232 13.7008C19.4124 13.079 20.1015 12.5901 20.8959 12.2393C21.6903 11.8833 22.5689 11.7079 23.5368 11.7079C24.5417 11.7079 25.4255 11.8833 26.1935 12.2393C26.9616 12.5954 27.6034 13.0631 28.1243 13.6477C28.6451 14.2323 29.0396 14.8966 29.3027 15.6406C29.5657 16.3847 29.7025 17.1447 29.7025 17.9046V19.111H18.6864C18.6864 19.4724 18.76 19.9401 18.9021 20.5034C19.0441 21.0667 19.3019 21.6195 19.6807 22.1509C20.0594 22.6877 20.5645 23.1447 21.201 23.5274C21.8376 23.91 22.653 24.1013 23.6579 24.1013C24.5259 24.1013 25.3729 23.8888 26.183 23.4689C26.9985 23.0491 27.6192 22.4751 28.0559 21.747L29.3027 22.8152ZM27.998 17.5645C27.998 16.9746 27.877 16.4166 27.6455 15.901C27.4088 15.3855 27.0879 14.9285 26.6775 14.5405C26.2725 14.1473 25.7885 13.839 25.2308 13.6105C24.6732 13.382 24.0787 13.265 23.4579 13.265C22.532 13.265 21.7587 13.4564 21.1432 13.839C20.5277 14.2217 20.0384 14.6628 19.6807 15.157C19.3229 15.6566 19.0652 16.1349 18.9126 16.6079C18.76 17.0756 18.6864 17.3944 18.6864 17.5698H27.998V17.5645Z" fill="#6D6E71"/>
<path d="M33.7901 3.62451H35.4946V25.3131H33.7901V3.62451Z" fill="#6D6E71"/>
<path d="M50.5195 19.7487C50.5195 20.3971 50.5248 20.9817 50.5353 21.4972C50.5458 22.0127 50.5563 22.491 50.5774 22.9321C50.5984 23.3732 50.6195 23.7824 50.651 24.1651C50.6773 24.5477 50.7194 24.9304 50.7773 25.313H49.1885C49.0728 24.6647 49.0202 23.9472 49.0202 23.1606H48.9623C48.4678 24.0216 47.8575 24.654 47.1316 25.0526C46.4056 25.4512 45.4797 25.6531 44.3644 25.6531C43.7962 25.6531 43.2386 25.5788 42.6914 25.4353C42.1443 25.2918 41.6498 25.0633 41.2131 24.7444C40.7765 24.4308 40.424 24.0216 40.1505 23.5273C39.8769 23.0278 39.7401 22.4273 39.7401 21.7204C39.7401 20.7054 39.9979 19.9028 40.5082 19.3129C41.0185 18.7177 41.6498 18.2766 42.3968 17.979C43.1439 17.6814 43.9382 17.4901 44.7852 17.405C45.627 17.32 46.3687 17.2775 47.0158 17.2775H49.0044V16.475C49.0044 15.3271 48.6519 14.5033 47.9522 14.0091C47.2525 13.5095 46.374 13.265 45.3113 13.265C43.7962 13.265 42.46 13.7646 41.3078 14.7584L40.3135 13.5839C40.9396 12.9727 41.7129 12.5104 42.6441 12.1915C43.57 11.8779 44.4643 11.7185 45.3113 11.7185C46.9001 11.7185 48.1679 12.0958 49.1149 12.8505C50.0618 13.6052 50.5353 14.8275 50.5353 16.5069V19.7487H50.5195ZM47.1105 18.6593C46.3898 18.6593 45.6953 18.7071 45.022 18.8028C44.3486 18.8984 43.7436 19.0632 43.2017 19.2917C42.6599 19.5202 42.2337 19.8284 41.9076 20.2111C41.5867 20.5937 41.4236 21.072 41.4236 21.646C41.4236 22.0499 41.513 22.406 41.6919 22.7196C41.8707 23.0331 42.1022 23.2935 42.3863 23.4955C42.6704 23.6974 42.986 23.8516 43.3385 23.9525C43.691 24.0588 44.0435 24.112 44.4012 24.112C45.3113 24.112 46.0583 23.9791 46.6423 23.708C47.2315 23.4423 47.6997 23.0915 48.0469 22.6611C48.3994 22.2306 48.6361 21.7417 48.7729 21.1996C48.9044 20.6522 48.9728 20.1048 48.9728 19.5521V18.6646H47.1105V18.6593Z" fill="#6D6E71"/>
<path d="M57.0481 27.6355C57.0481 28.3264 56.9955 28.9429 56.8903 29.5009C56.7851 30.0536 56.5905 30.5319 56.3064 30.9358C56.0223 31.3397 55.6383 31.6479 55.1543 31.8658C54.6703 32.0837 54.0495 32.1953 53.2919 32.1953C52.8395 32.1953 52.3818 32.1103 51.9294 31.9349L52.1872 30.415C52.587 30.5691 52.9447 30.6435 53.2656 30.6435C53.7181 30.6435 54.0863 30.5638 54.3599 30.399C54.6334 30.2343 54.8439 30.027 54.9859 29.7666C55.128 29.5062 55.2226 29.2086 55.27 28.8631C55.3173 28.5177 55.3384 28.1563 55.3384 27.7737V12.0533H57.0429V27.6355H57.0481ZM54.9175 6.8079C54.9175 6.44652 55.0385 6.13828 55.2858 5.8885C55.533 5.63872 55.8329 5.51648 56.1959 5.51648C56.5589 5.51648 56.8588 5.63872 57.106 5.8885C57.3533 6.13828 57.4743 6.4412 57.4743 6.8079C57.4743 7.16929 57.3533 7.47754 57.106 7.72732C56.8588 7.9771 56.5589 8.09934 56.1959 8.09934C55.8329 8.09934 55.533 7.9771 55.2858 7.72732C55.0438 7.47754 54.9175 7.1746 54.9175 6.8079Z" fill="#6D6E71"/>
<path d="M72.073 19.7487C72.073 20.3971 72.0783 20.9817 72.0888 21.4972C72.0993 22.0127 72.1098 22.491 72.1309 22.9321C72.1519 23.3732 72.173 23.7824 72.2045 24.1651C72.2308 24.5477 72.2729 24.9304 72.3308 25.313H70.742C70.6263 24.6647 70.5737 23.9472 70.5737 23.1606H70.5158C70.0213 24.0216 69.411 24.654 68.685 25.0526C67.9591 25.4512 67.0332 25.6531 65.9179 25.6531C65.3497 25.6531 64.7921 25.5788 64.2449 25.4353C63.6978 25.2918 63.2033 25.0633 62.7666 24.7444C62.33 24.4308 61.9775 24.0216 61.704 23.5273C61.4304 23.0278 61.2936 22.4273 61.2936 21.7204C61.2936 20.7054 61.5514 19.9028 62.0617 19.3129C62.572 18.7177 63.2033 18.2766 63.9503 17.979C64.6974 17.6814 65.4917 17.4901 66.3387 17.405C67.1804 17.32 67.9222 17.2775 68.5693 17.2775H70.5368V16.475C70.5368 15.3271 70.1844 14.5033 69.4847 14.0091C68.785 13.5095 67.9065 13.265 66.8438 13.265C65.3287 13.265 63.9924 13.7646 62.8403 14.7584L61.846 13.5839C62.472 12.9727 63.2454 12.5104 64.1765 12.1915C65.1024 11.8779 65.9968 11.7185 66.8438 11.7185C68.4325 11.7185 69.7004 12.0958 70.6473 12.8505C71.5943 13.6052 72.0677 14.8275 72.0677 16.5069V19.7487H72.073ZM68.664 18.6593C67.9433 18.6593 67.2488 18.7071 66.5755 18.8028C65.9021 18.8984 65.2971 19.0632 64.7552 19.2917C64.2134 19.5202 63.7872 19.8284 63.4611 20.2111C63.1401 20.5937 62.9771 21.072 62.9771 21.646C62.9771 22.0499 63.0665 22.406 63.2454 22.7196C63.4242 23.0331 63.6557 23.2935 63.9398 23.4955C64.2239 23.6974 64.5395 23.8516 64.892 23.9525C65.2445 24.0588 65.597 24.112 65.9547 24.112C66.8648 24.112 67.6118 23.9791 68.1958 23.708C68.785 23.4423 69.2532 23.0915 69.6004 22.6611C69.9529 22.2306 70.1896 21.7417 70.3264 21.1996C70.4579 20.6522 70.5263 20.1048 70.5263 19.5521V18.6646H68.664V18.6593Z" fill="#6D6E71"/>
<path d="M76.6131 15.7894C76.6131 15.5396 76.6026 15.242 76.5868 14.886C76.5657 14.5299 76.5552 14.1738 76.5447 13.8124C76.5342 13.451 76.5184 13.1109 76.5026 12.7921C76.4816 12.4785 76.4763 12.234 76.4763 12.0587H78.1808C78.2019 12.5582 78.2124 13.0312 78.2229 13.4935C78.2334 13.9506 78.2545 14.2482 78.2913 14.3811C78.7279 13.5945 79.2856 12.9568 79.9642 12.4572C80.6481 11.9577 81.4793 11.7132 82.4631 11.7132C82.6315 11.7132 82.7998 11.7291 82.9576 11.7557C83.1207 11.7823 83.2838 11.8195 83.4521 11.8567L83.2522 13.5467C83.026 13.4723 82.8051 13.4298 82.5999 13.4298C81.8634 13.4298 81.2216 13.552 80.685 13.7859C80.1431 14.025 79.7012 14.3545 79.3487 14.7744C78.9962 15.1942 78.7385 15.6884 78.5701 16.2518C78.4018 16.8151 78.3123 17.4263 78.3123 18.0747V25.3024H76.6078V15.7894H76.6131Z" fill="#6D6E71"/>
<path d="M100.802 22.5017C100.008 23.5274 99.0031 24.3192 97.7878 24.8773C96.5726 25.4353 95.3152 25.7116 94.0106 25.7116C92.7743 25.7116 91.6064 25.5097 90.5121 25.1111C89.4179 24.7125 88.4657 24.1332 87.6608 23.3892C86.8559 22.6399 86.2193 21.7417 85.7564 20.6947C85.2934 19.6478 85.0619 18.4733 85.0619 17.1765C85.0619 15.8798 85.2934 14.7106 85.7564 13.6636C86.2193 12.6167 86.8559 11.7185 87.6608 10.9692C88.4657 10.2198 89.4179 9.64586 90.5121 9.24727C91.6064 8.84337 92.769 8.64673 94.0106 8.64673C95.1574 8.64673 96.2043 8.84868 97.1407 9.24727C98.0824 9.65117 98.8768 10.2251 99.5291 10.9692C100.181 11.7185 100.681 12.6167 101.039 13.6636C101.391 14.7106 101.57 15.8851 101.57 17.1765V18.7496H90.0387C90.2386 19.7115 90.67 20.4715 91.3328 21.0455C91.9957 21.6141 92.8111 21.9011 93.7843 21.9011C94.5998 21.9011 95.2942 21.7151 95.8571 21.3484C96.42 20.9817 96.9093 20.5087 97.3301 19.9241L100.802 22.5017ZM96.5936 15.3324C96.6147 14.4821 96.3411 13.7593 95.7624 13.1534C95.189 12.5529 94.4472 12.25 93.5423 12.25C92.9899 12.25 92.5007 12.3403 92.0851 12.5157C91.6642 12.6964 91.3065 12.9249 91.0066 13.2013C90.7068 13.4829 90.4753 13.8018 90.3122 14.1738C90.1439 14.5405 90.0544 14.9285 90.0281 15.3271H96.5936V15.3324Z" fill="#2FB5E3"/>
<path d="M104.58 0H109.551V15.4706L115.054 9.03999H121.151L114.754 16.374L121.314 25.313H115.049L109.614 17.0756H109.546V25.313H104.574V0H104.58Z" fill="#2FB5E3"/>
<path d="M132.12 13.8284C131.389 12.9143 130.431 12.4573 129.237 12.4573C128.816 12.4573 128.411 12.5582 128.011 12.7602C127.611 12.9621 127.417 13.3076 127.417 13.7965C127.417 14.2004 127.622 14.4927 128.032 14.684C128.443 14.8754 128.958 15.0401 129.589 15.1836C130.221 15.3271 130.894 15.4865 131.61 15.6512C132.325 15.816 133.004 16.0817 133.63 16.4378C134.261 16.7939 134.777 17.2828 135.187 17.894C135.597 18.5105 135.802 19.3289 135.802 20.3546C135.802 21.4069 135.576 22.2678 135.124 22.9481C134.671 23.6284 134.093 24.1757 133.382 24.5903C132.677 25.0048 131.878 25.2918 130.994 25.4619C130.11 25.6266 129.237 25.7116 128.374 25.7116C127.248 25.7116 126.107 25.5469 124.96 25.228C123.813 24.9038 122.84 24.3299 122.045 23.5061L125.06 20.1261C125.523 20.7054 126.038 21.1465 126.601 21.4494C127.164 21.7523 127.822 21.9011 128.574 21.9011C129.147 21.9011 129.668 21.8161 130.131 21.6514C130.594 21.4866 130.826 21.1784 130.826 20.732C130.826 20.3068 130.621 19.9879 130.21 19.7753C129.8 19.5627 129.284 19.3873 128.653 19.2385C128.022 19.0951 127.348 18.9356 126.633 18.7709C125.912 18.6061 125.239 18.351 124.613 18.0162C123.987 17.6814 123.466 17.2084 123.055 16.5919C122.645 15.9808 122.44 15.157 122.44 14.1313C122.44 13.1694 122.635 12.3456 123.019 11.6548C123.403 10.9639 123.913 10.3952 124.544 9.94878C125.176 9.50237 125.896 9.17287 126.717 8.96029C127.532 8.74771 128.364 8.64142 129.205 8.64142C130.268 8.64142 131.336 8.79554 132.42 9.1091C133.503 9.42265 134.419 9.98068 135.171 10.7832L132.12 13.8284Z" fill="#2FB5E3"/>
<path d="M138.817 9.04001H143.388V11.1818H143.457C143.657 10.8895 143.915 10.5972 144.235 10.2942C144.556 9.99131 144.93 9.72025 145.361 9.47578C145.793 9.23132 146.261 9.02938 146.771 8.87526C147.281 8.72114 147.818 8.64142 148.397 8.64142C149.591 8.64142 150.675 8.84869 151.643 9.26322C152.616 9.67776 153.447 10.257 154.147 11.0064C154.841 11.7557 155.378 12.6432 155.757 13.6689C156.13 14.6946 156.32 15.8213 156.32 17.049C156.32 18.1863 156.146 19.2758 155.804 20.3121C155.462 21.3484 154.973 22.2731 154.347 23.0756C153.715 23.8781 152.947 24.5212 152.043 24.9995C151.138 25.4778 150.107 25.7169 148.96 25.7169C147.923 25.7169 146.955 25.5522 146.061 25.2333C145.167 24.9091 144.43 24.3564 143.857 23.5752H143.788V32.95H138.817V9.04001V9.04001ZM143.388 17.1765C143.388 18.4042 143.736 19.398 144.43 20.158C145.125 20.918 146.103 21.2953 147.366 21.2953C148.623 21.2953 149.601 20.918 150.301 20.158C150.996 19.398 151.343 18.4042 151.343 17.1765C151.343 15.9489 150.996 14.9551 150.301 14.1951C149.607 13.4351 148.628 13.0578 147.366 13.0578C146.108 13.0578 145.13 13.4351 144.43 14.1951C143.736 14.9551 143.388 15.9489 143.388 17.1765Z" fill="#2FB5E3"/>
<path d="M188.663 9.04002H193.634V11.6494H193.703C194.234 10.645 194.865 9.89034 195.591 9.39078C196.317 8.89121 197.238 8.63611 198.343 8.63611C198.627 8.63611 198.916 8.64674 199.206 8.66799C199.49 8.68925 199.758 8.73708 200 8.80086V13.3873C199.648 13.2757 199.3 13.1906 198.958 13.1375C198.616 13.0844 198.259 13.0525 197.88 13.0525C196.928 13.0525 196.181 13.1854 195.628 13.4564C195.076 13.7221 194.65 14.0994 194.35 14.5777C194.05 15.0561 193.855 15.63 193.771 16.2996C193.682 16.9693 193.64 17.708 193.64 18.5105V25.3078H188.668V9.04002H188.663Z" fill="#2FB5E3"/>
</svg>
